<?xml version="1.0" standalone="no"?>
<!DOCTYPE svg PUBLIC "-//W3C//DTD SVG 20010904//EN"
 "http://www.w3.org/TR/2001/REC-SVG-20010904/DTD/svg10.dtd">
<svg version="1.0" xmlns="http://www.w3.org/2000/svg"
 width="135.000000pt" height="300.000000pt" viewBox="0 0 135.000000 300.000000"
 preserveAspectRatio="xMidYMid meet">
<metadata>
Created by potrace 1.10, written by Peter Selinger 2001-2011
</metadata>
<g transform="translate(0.000000,300.000000) scale(0.100000,-0.100000)"
fill="#000000" stroke="none">
<path d="M348 2496 c-51 -14 -111 -55 -129 -87 -14 -27 -14 -113 0 -166 24
-86 157 -170 317 -198 216 -38 308 -29 372 38 97 101 93 317 -8 385 -33 22
-40 23 -135 17 -55 -4 -102 -9 -104 -11 -2 -1 6 -15 18 -30 22 -27 29 -84 11
-84 -6 0 -21 24 -34 53 -12 28 -29 57 -37 63 -15 13 -139 34 -191 33 -18 0
-54 -6 -80 -13z m201 -30 c25 -2 66 -37 85 -74 36 -70 83 -62 93 17 4 30 10
41 19 37 7 -3 27 0 44 6 22 7 35 7 42 0 6 -6 16 -8 22 -6 15 6 52 -28 72 -68
12 -23 15 -52 12 -118 -3 -81 -6 -91 -34 -126 -56 -70 -72 -77 -173 -76 -111
1 -209 10 -236 21 -93 38 -155 70 -183 95 -119 103 -84 273 60 291 16 2 33 6
36 10 3 3 33 3 65 -1 33 -4 67 -7 76 -8z"/>
<path d="M270 2115 c0 -3 18 -37 40 -76 48 -85 74 -170 94 -314 30 -205 73
-299 213 -462 88 -102 280 -234 319 -219 13 5 16 17 12 62 -5 55 -6 57 -85
134 -88 84 -151 186 -205 329 -35 94 -48 191 -26 191 11 0 18 -14 23 -45 10
-69 39 -149 97 -263 47 -94 63 -115 172 -224 138 -137 151 -147 174 -124 15
14 15 23 -2 102 -9 47 -33 127 -52 177 -105 278 -134 381 -134 493 0 47 6 99
15 124 22 61 20 63 -29 29 -55 -39 -129 -47 -288 -29 -129 13 -232 45 -295 90
-24 17 -43 29 -43 25z m175 -115 c51 -22 198 -39 315 -37 l125 2 0 -110 c1
-99 5 -122 38 -230 21 -66 42 -129 46 -140 57 -131 114 -335 93 -335 -4 0 -57
47 -117 104 -100 94 -155 167 -155 205 0 6 -4 11 -10 11 -5 0 -10 4 -10 10 0
5 -11 33 -24 62 -42 95 -48 112 -53 158 -5 52 -26 80 -59 80 -71 0 -49 -144
52 -348 45 -91 71 -129 131 -192 83 -86 109 -128 93 -144 -13 -13 -46 4 -138
72 -119 89 -267 276 -288 367 -4 17 -10 35 -14 40 -4 6 -13 42 -20 80 -20 112
-48 247 -61 292 -19 69 -8 80 56 53z"/>
</g>
</svg>
